<?xml version="1.0" encoding="UTF-8"?>
<svg id="Capa_2" xmlns="http://www.w3.org/2000/svg" version="1.1" xmlns:xlink="http://www.w3.org/1999/xlink" viewBox="0 0 100 40">
  <!-- Generator: Adobe Illustrator 29.0.1, SVG Export Plug-In . SVG Version: 2.1.0 Build 192)  -->
  <defs>
    <style>
      .st0, .st1 {
        fill: none;
      }

      .st2 {
        clip-path: url(#clippath-1);
      }

      .st3 {
        fill: #165b4f;
      }

      .st1 {
        stroke: #165b4f;
        stroke-miterlimit: 10;
        stroke-width: 1.2px;
      }

      .st4 {
        clip-path: url(#clippath);
      }
    </style>
    <clipPath id="clippath">
      <rect class="st0" x="7.7" y="12.9" width="9.3" height="15.8"/>
    </clipPath>
    <clipPath id="clippath-1">
      <rect class="st0" x="17" y="12.9" width="9.3" height="15.8"/>
    </clipPath>
  </defs>
  <g id="Capa_1-2">
    <g>
      <path class="st3" d="M43.1,27.1c-.9,0-1.7-.3-2-1.2l-1-2.5c-.6-1.5-1.2-1.6-2-1.8-.6-.1-1.1-.2-1.4-.2v5.6h-.9c-1.2,0-1.9-.8-1.9-1.9v-11.7c.6-.2,2.5-.5,3.6-.5h1.5c2.8,0,4.6,1.7,4.6,4s-1.2,3.5-2.9,3.7c.8.3,1.4,1.1,1.7,2l1.1,2.6c.3.8.7,1.2.9,1.4-.3.3-.6.4-1.3.4h0ZM37.9,15.3c-.3,0-.9,0-1.2.1v3.7c.6.1,1.2.1,2,.1,1.1,0,2.1-.7,2.1-1.9s-.9-2.1-2.1-2.1h-.8Z"/>
      <path class="st3" d="M51.7,27.2c-3.5,0-6.4-2.8-6.4-7s2.4-7.4,6.7-7.4,6.4,2.6,6.4,7-2.4,7.4-6.7,7.4ZM51.7,15.2c-2.1,0-3.5,1.7-3.5,4.5s1.2,5,3.8,5,3.5-1.5,3.5-4.6-1.4-4.9-3.8-4.9h0Z"/>
      <path class="st3" d="M66.4,27.2c-3.5,0-6.4-2.8-6.4-7s2.4-7.4,6.7-7.4,6.4,2.6,6.4,7-2.4,7.4-6.7,7.4ZM66.5,15.2c-2.1,0-3.5,1.7-3.5,4.5s1.2,5,3.8,5,3.5-1.5,3.5-4.6-1.4-4.9-3.8-4.9h0Z"/>
      <path class="st3" d="M83.2,15.5h-2.6v11.5h-1.1c-1,0-1.7-.6-1.7-1.9v-9.6h-4v-.9c0-.7.5-1.5,1.7-1.5h9.4v.9c0,.7-.8,1.6-1.7,1.6h0Z"/>
      <path class="st3" d="M90.1,27.2c-2.8,0-4.3-1.1-4.3-2.7v-1.2h0c.9.8,2.2,1.5,3.9,1.5s2.8-.7,2.8-1.8-.4-1.4-3.3-2c-2.4-.5-3.7-1.7-3.7-3.6s2-4.5,5.2-4.5,4.2,1.4,4.2,2.5v1.3h0c-.9-.9-2.1-1.4-3.6-1.4s-3,.7-3,1.8.7,1.3,3.3,1.9c2.5.5,3.8,1.9,3.8,3.7,0,2.7-1.9,4.6-5.3,4.6h0Z"/>
    </g>
    <g>
      <path class="st1" d="M12,7.2h10c4,0,7.3,3.3,7.3,7.3v16.3c0,1.1-.9,1.9-1.9,1.9H6.5c-1.1,0-1.9-.9-1.9-1.9V14.5c0-4,3.3-7.3,7.3-7.3Z"/>
      <g>
        <g id="_x3C_Repetición_de_espejo_x3E_">
          <g class="st4">
            <g>
              <rect class="st1" x="8.3" y="13.5" width="10.6" height="3.2" rx=".8" ry=".8"/>
              <path class="st1" d="M10.3,16.7h14.3v7c0,2.4-2,4.4-4.4,4.4h-5.6c-2.4,0-4.4-2-4.4-4.4v-7h0Z"/>
            </g>
          </g>
        </g>
        <g id="_x3C_Repetición_de_espejo_x3E_-2">
          <g class="st2">
            <g>
              <rect class="st1" x="15.1" y="13.5" width="10.6" height="3.2" rx=".8" ry=".8"/>
              <path class="st1" d="M19.2,28.1h-5.6c-2.4,0-4.4-2-4.4-4.4v-7h14.3v7c0,2.4-2,4.4-4.4,4.4Z"/>
            </g>
          </g>
        </g>
      </g>
      <path class="st1" d="M15.1,19c.3,0,.6,0,.9.2.4.2.6.5.9.8,0,0,0,0,0,0,0,0,0,0,0,0,.3-.4.6-.7,1-.9.4-.2.9-.2,1.4,0,.3,0,.5.2.8.5.3.3.5.7.6,1.1,0,.5,0,.9-.2,1.3-.2.4-.5.8-.8,1.2-.2.2-.4.4-.6.6-.2.2-.5.4-.7.6-.3.2-.5.4-.8.6-.2.2-.4.3-.6.5,0,0,0,0,0,0-.2-.2-.5-.4-.7-.6-.3-.2-.6-.5-.9-.7-.3-.3-.7-.6-1-1-.3-.3-.6-.7-.8-1.1-.1-.3-.3-.5-.3-.8-.1-.6,0-1.2.4-1.7.3-.4.7-.7,1.3-.7,0,0,0,0,0,0,0,0,.1,0,.2,0h0Z"/>
    </g>
  </g>
</svg>