<?xml version="1.0" encoding="UTF-8"?>
<svg id="Capa_2" xmlns="http://www.w3.org/2000/svg" version="1.1" xmlns:xlink="http://www.w3.org/1999/xlink" viewBox="0 0 56.3 45.1">
  <!-- Generator: Adobe Illustrator 29.0.1, SVG Export Plug-In . SVG Version: 2.1.0 Build 192)  -->
  <defs>
    <style>
      .st0, .st1 {
        fill: none;
      }

      .st2 {
        clip-path: url(#clippath-1);
      }

      .st1 {
        stroke: #fff;
        stroke-miterlimit: 10;
        stroke-width: 1.8px;
      }

      .st3 {
        fill: #165b4f;
      }

      .st4 {
        clip-path: url(#clippath);
      }
    </style>
    <clipPath id="clippath">
      <rect class="st0" x="14.1" y="11.8" width="14" height="23.8"/>
    </clipPath>
    <clipPath id="clippath-1">
      <rect class="st0" x="28.1" y="11.8" width="14" height="23.8"/>
    </clipPath>
  </defs>
  <rect class="st3" x="-2" y="-5" width="60" height="60.2"/>
  <g>
    <path class="st1" d="M20.6,3.4h15.1c6.1,0,11,4.9,11,11v24.5c0,1.6-1.3,2.9-2.9,2.9H12.5c-1.6,0-2.9-1.3-2.9-2.9V14.4c0-6.1,4.9-11,11-11Z"/>
    <g>
      <g id="_x3C_Repetición_de_espejo_x3E_">
        <g class="st4">
          <rect class="st1" x="15" y="12.7" width="15.9" height="4.8" rx="1.2" ry="1.2"/>
          <path class="st1" d="M18.2,17.6h21.5v10.6c0,3.6-2.9,6.6-6.6,6.6h-8.4c-3.6,0-6.6-2.9-6.6-6.6v-10.6h0Z"/>
        </g>
      </g>
      <g id="_x3C_Repetición_de_espejo_x3E_1" data-name="_x3C_Repetición_de_espejo_x3E_">
        <g class="st2">
          <rect class="st1" x="25.4" y="12.7" width="15.9" height="4.8" rx="1.2" ry="1.2" transform="translate(66.6 30.3) rotate(180)"/>
          <path class="st1" d="M23.2,17.6h8.4c3.6,0,6.6,2.9,6.6,6.6v10.6h-21.5v-10.6c0-3.6,2.9-6.6,6.6-6.6Z" transform="translate(54.7 52.3) rotate(180)"/>
        </g>
      </g>
    </g>
    <path class="st1" d="M25.4,21c.5,0,.9.1,1.3.3.5.3,1,.7,1.3,1.2,0,0,0,0,0,0,0,0,0,0,.1,0,.4-.6.9-1,1.5-1.3.7-.3,1.3-.4,2-.1.4.1.8.4,1.2.7.5.5.8,1,.9,1.7.1.7,0,1.4-.3,2-.3.7-.7,1.3-1.2,1.8-.3.3-.6.7-.9,1-.3.3-.7.7-1.1,1-.4.3-.8.6-1.2.9-.3.2-.6.5-1,.7,0,0,0,0-.1,0-.4-.3-.7-.6-1.1-.8-.4-.4-.9-.7-1.3-1.1-.5-.4-1-.9-1.5-1.4-.5-.5-.9-1-1.2-1.6-.2-.4-.4-.8-.5-1.3-.2-.9,0-1.8.6-2.5.5-.6,1.1-1,1.9-1.1,0,0,0,0,.1,0,0,0,.2,0,.2,0Z"/>
  </g>
</svg>